HIERARCHY
ROOT HipCenter
{
    OFFSET 0.0 0.0 -0.0
    CHANNELS 6 Xposition Yposition Zposition Zrotation Xrotation Yrotation
    JOINT Spine
    {
        OFFSET 0.0 0.12103895843029022 0.0
        CHANNELS 3 Zrotation Xrotation Yrotation
        JOINT ShoulderCenter
        {
            OFFSET 0.0 0.33444908261299133 0.0
            CHANNELS 3 Zrotation Xrotation Yrotation
            JOINT LeftShoulder
            {
                OFFSET 0.19048361480236053 0.0 0.0
                CHANNELS 3 Zrotation Xrotation Yrotation
                JOINT LeftElbow
                {
                    OFFSET 0.2974995970726013 0.0 0.0
                    CHANNELS 3 Zrotation Xrotation Yrotation
                    JOINT LeftWrist
                    {
                        OFFSET 0.29604482650756836 0.0 0.0
                        CHANNELS 3 Zrotation Xrotation Yrotation
                        JOINT LeftHand
                        {
                            OFFSET 0.04406511411070824 0.0 0.0
                            CHANNELS 3 Zrotation Xrotation Yrotation
                            End Site
                            {
                                OFFSET 0.017626045271754265 0.0 0.0
                            }
                        }
                    }
                }
            }
            JOINT RightShoulder
            {
                OFFSET -0.19048361480236053 0.0 0.0
                CHANNELS 3 Zrotation Xrotation Yrotation
                JOINT RightElbow
                {
                    OFFSET -0.2974995970726013 0.0 0.0
                    CHANNELS 3 Zrotation Xrotation Yrotation
                    JOINT RightWrist
                    {
                        OFFSET -0.29604482650756836 0.0 0.0
                        CHANNELS 3 Zrotation Xrotation Yrotation
                        JOINT RightHand
                        {
                            OFFSET -0.04406511411070824 0.0 0.0
                            CHANNELS 3 Zrotation Xrotation Yrotation
                            End Site
                            {
                                OFFSET -0.017626045271754265 0.0 0.0
                            }
                        }
                    }
                }
            }
            End Site
            {
                OFFSET 0.0 0.1337796300649643 0.0
            }
        }
    }
    JOINT LeftHip
    {
        OFFSET 0.13973641395568848 0.0 0.0
        CHANNELS 3 Zrotation Xrotation Yrotation
        JOINT LeftKnee
        {
            OFFSET 0.0 -0.4064507484436035 0.0
            CHANNELS 3 Zrotation Xrotation Yrotation
            JOINT LeftAnkle
            {
                OFFSET 0.0 -0.447745680809021 0.0
                CHANNELS 3 Zrotation Xrotation Yrotation
                JOINT LeftFoot
                {
                    OFFSET 0.0 -0.10067936778068542 0.0
                    CHANNELS 3 Zrotation Xrotation Yrotation
                    End Site
                    {
                        OFFSET 0.0 0.0 0.04027174785733223
                    }
                }
            }
        }
    }
    JOINT RightHip
    {
        OFFSET -0.13973641395568848 0.0 0.0
        CHANNELS 3 Zrotation Xrotation Yrotation
        JOINT RightKnee
        {
            OFFSET 0.0 -0.4064507484436035 0.0
            CHANNELS 3 Zrotation Xrotation Yrotation
            JOINT RightAnkle
            {
                OFFSET 0.0 -0.447745680809021 0.0
                CHANNELS 3 Zrotation Xrotation Yrotation
                JOINT RightFoot
                {
                    OFFSET 0.0 -0.10067936778068542 0.0
                    CHANNELS 3 Zrotation Xrotation Yrotation
                    End Site
                    {
                        OFFSET 0.0 0.0 0.04027174785733223
                    }
                }
            }
        }
    }
}
MOTION
Frames: 5
Frame Time: 0.03333333333333333
0.3440000116825104 0.05000000074505806 0.04899999871850014 3.0394054540501116 21.686225006141424 -4.962995764831075 -0.955183095818761 2.798182587492604 -0.20079044051768508 1.9522063289142723e-07 -6.420095714940032e-07 7.445181273749921 127.43618201488943 -10.774201885395108 147.75841301166986 7.721294196737089e-06 -2.8274712607862227e-06 9.433257886300689 -1.4378329135094694e-05 -59.10052941603173 8.999469098495709 0.0 7.951386703658792e-16 0.0 -131.68073588809725 16.018744128976312 -137.66826774848542 -1.9126375573627252e-06 5.5810193912183085e-06 -17.109876023382608 -179.9999984844767 -54.93238908383505 138.149357593229 1.7655625192200634e-31 6.3611093629270335e-15 -3.1805546814635168e-15 20.048429713340493 -46.59951631270202 50.13347242617514 37.503399258560485 42.55880177926338 -118.48957950217185 78.44651067936701 -25.176701696947358 145.95234593042048 0.0 0.0 -3.1805546814635168e-15 -13.05425135741179 -31.7710825470679 9.205666314948974 12.863274899419366 33.738249674101134 34.46577964890982 -92.9975557273854 -21.525942414705796 -158.70734592903494 0.0 0.0 -6.361109362927033e-15
0.34299999475479126 0.04100000113248825 0.06499999761581421 2.6025599181487946 24.851600013405303 -4.033486337204788 -0.34060454047351085 4.048899813854873 -0.26033078166077944 2.19004376594454e-07 -1.5573914791399864e-06 7.055215734313509 129.01565263199106 -8.92977968899787 136.49974371772927 -9.069413583970561e-08 1.6942508879640227e-05 9.25582840963984 179.99996079474957 -79.00638630945912 -173.4285486748794 0.0 0.0 -6.361109362927035e-15 -144.24185042424537 20.208205945098612 -125.52769499135309 2.6540805969093806e-07 -3.4776560736310946e-06 -14.041447914013002 -179.99999903115793 -46.18733746593026 135.66700266309863 -4.770832022195275e-15 7.951386703658792e-15 3.3104297235376187e-31 23.501658972449043 -51.761350476749165 61.480039577536026 36.96142383668765 36.524673089541025 -117.30375621681581 79.76601193427447 -30.606557544181026 148.71151794597213 -3.180554681463516e-15 -4.7708320221952736e-15 -1.5902773407317582e-15 -15.072952286189112 -40.39530525903351 -8.220126852062645 1.7804718698632636 34.01735789861181 50.03306191753826 -93.88137201280483 -24.634330862101883 -162.27099659465594 1.5902773407317584e-15 1.5902773407317584e-15 -6.3611093629270335e-15
0.34299999475479126 0.01899999938905239 0.07699999958276749 2.7006266286273393 28.659346651900027 -3.273199079183452 -0.294446155863295 4.377009129430931 -0.24670101381228157 1.1777755716337294e-07 -1.3715094232632575e-06 6.920686490760062 133.27512832756545 -4.726339666706684 126.67374418684365 8.279373864917826e-07 -1.0753427139432607e-05 9.59179491208722 -179.99999007812994 -51.28868663614795 -173.82436626964616 3.1805546814635164e-15 -4.770832022195275e-15 -6.3611093629270335e-15 -158.6491220200231 21.26743973899453 -112.39720138966665 7.252966760187727e-07 5.250410522491951e-06 -11.593445687473347 -179.99999782889245 -46.20666116124985 132.76688931545303 -3.1805546814635176e-15 -1.7655625192200634e-31 6.361109362927035e-15 27.62996613798251 -58.738431104994326 72.76908988384851 34.78754834947077 31.32657479311344 -110.04110664021648 77.42069881263436 -40.10527176731255 146.7376200608374 3.1805546814635168e-15 6.3611093629270335e-15 -3.1805546814635168e-15 -20.007650004827124 -51.58241776728352 -35.014827998345595 -13.916939255543785 32.96425291969624 72.80703173166806 -92.35737208222419 -31.92732898327613 -161.83694157865912 -6.361109362927035e-15 3.531125038440127e-31 -6.361109362927035e-15
0.34200000762939453 -0.014999999664723873 0.08500000089406967 2.779164600851137 31.824915591246533 -1.6722861762701693 -0.6611944500485522 5.489415907073567 -0.19436461158102442 2.6120166704490656e-07 -2.603738563863719e-06 5.658456087709305 133.9140859004579 -3.6731255847965505 117.78719893073082 3.6355694648394687e-06 -2.090940758476186e-07 10.535822992686562 179.99999157341873 -67.93682470149518 -172.21161179318855 6.3611093629270335e-15 -3.531125038440127e-31 -6.3611093629270335e-15 -164.45457959127503 16.824399256522565 -102.72233759533277 2.560822229774295e-06 6.616794105179132e-07 -11.681651865336491 -179.9999991163562 -41.356268230300394 132.41441281296258 -2.3357198441997697e-15 3.180554681463516e-15 -2.9817700138720455e-16 33.55716750885885 -67.62510038502126 83.3727161659441 33.955287658756745 29.25256024112415 -96.02234550620567 68.77040169401894 -55.24982916828807 134.9738870403816 0.0 -6.361109362927033e-15 0.0 -31.2302045768837 -62.23643690918949 -67.35905691915306 -28.02266730437535 27.138503600510266 92.46886142240169 -86.11665206030861 -38.864617557619006 -159.30958321598138 -6.361109362927033e-15 6.3611093629270335e-15 -1.2722218725854067e-14
0.3400000035762787 -0.061000000685453415 0.09399999678134918 2.29061462323149 34.19440579511176 -0.31344115053389965 -0.05796520569506506 6.792324807521747 -0.29564188652371903 1.5879355774479326e-07 8.205663477973542e-07 5.53076272581033 137.98385911546112 -0.8895424298306824 110.95700726720051 3.4337834213545218e-06 -7.078610534225923e-06 11.170337500583162 -179.99999470128373 -63.2825551214121 -172.32730758222172 -1.5902773407317588e-15 -3.1805546814635176e-15 -4.4139062980501586e-32 -169.55297574094143 12.141142150729557 -94.24457896323852 -1.6514652133556193e-06 -5.755220171288327e-06 -12.157177354048393 179.99999770207134 -35.5624580596992 136.3630007270923 4.770832022195275e-15 -2.385416011097638e-15 -6.3611093629270335e-15 53.16330567408373 -75.96505163679981 108.20962184445197 36.86185312821595 28.009556526773746 -86.34016112373143 49.06591665487327 -63.86395595047 113.15925743273144 -3.180554681463516e-15 -4.770832022195274e-15 6.361109362927033e-15 -50.5121683939667 -70.84896247423073 -98.88634480960833 -36.651705028709955 22.68656234297849 98.77848978046896 -75.7721717590883 -44.96077689499353 -151.831227401798 6.361109362927035e-15 -1.7655625192200634e-31 -3.1805546814635176e-15
